<svg id="Слой_1" data-name="Слой 1" xmlns="http://www.w3.org/2000/svg" viewBox="0 0 120 120">
  <defs>
    <style>
      .cls-1{fill:#fff;}.cls-2{fill:#4e6a7c;}.cls-3,.cls-5{fill:#ccdcea;}.cls-4{fill:#f04c4c;}.cls-5{fill-rule:evenodd;}
    </style>
  </defs>
  <title>Монтажная область 6</title>
  <g id="Group">
    <g id="Group-2">
      <g id="Group-3">
        <path class="cls-2"
              d="M89.71,44.32A61.58,61.58,0,0,0,50.27,30H19.74V64.57h3.82a5.38,5.38,0,0,0,9.6,0H45.54a5.38,5.38,0,0,0,9.6,0H67.52a5.38,5.38,0,0,0,9.6,0H84.5c4.84,0,15.77-4,15.76-8.89C100.26,53.71,95.44,49.09,89.71,44.32ZM25.09,35.39H50.27a56.15,56.15,0,0,1,12.34,1.43V43a4.28,4.28,0,0,0,4.26,4.29H84.75c.51.39,1,.76,1.54,1.17,2,1.68,3.55,3,4.76,4.16h-66V35.39Z"/>
        <path class="cls-3"
              d="M30.27,47.39h5.47a.47.47,0,0,0,.47-.47V41.45a.47.47,0,0,0-.47-.47H30.27a.47.47,0,0,0-.47.47v5.47A.47.47,0,0,0,30.27,47.39Z"/>
        <path class="cls-3"
              d="M40.34,47.39h5.47a.47.47,0,0,0,.46-.47V41.45a.47.47,0,0,0-.46-.47H40.34a.47.47,0,0,0-.47.47v5.47A.47.47,0,0,0,40.34,47.39Z"/>
        <path class="cls-3"
              d="M51.32,47.39h5.47a.47.47,0,0,0,.46-.47V41.45a.47.47,0,0,0-.46-.47H51.32a.47.47,0,0,0-.47.47v5.47A.47.47,0,0,0,51.32,47.39Z"/>
        <path class="cls-4" d="M92.09,69.35H19.74v4.57H92.09a2.31,2.31,0,1,0,0-4.57Z"/>
        <polygon id="Star" class="cls-5"
                 points="35.29 88.04 30.99 90 31.64 85.56 28.33 82.33 33.04 81.54 35.29 77.58 37.55 81.54 42.26 82.33 38.94 85.56 39.6 90 35.29 88.04"/>
        <polygon id="Star-Copy" class="cls-5"
                 points="60.91 88.04 56.61 90 57.27 85.56 53.95 82.33 58.66 81.54 60.91 77.58 63.17 81.54 67.88 82.33 64.56 85.56 65.22 90 60.91 88.04"/>
        <polygon id="Star-Copy-2" class="cls-5"
                 points="86.54 88.04 82.23 90 82.89 85.56 79.58 82.33 84.28 81.54 86.54 77.58 88.79 81.54 93.5 82.33 90.19 85.56 90.84 90 86.54 88.04"/>
      </g>
    </g>
  </g>
</svg>
