<svg id="Слой_1" data-name="Слой 1" xmlns="http://www.w3.org/2000/svg" viewBox="0 0 120 120">
  <defs>
    <style>
      .cls-1,.cls-3{fill:#fff;}.cls-2{fill:#4e6a7c;}.cls-2,.cls-3,.cls-4,.cls-5{fill-rule:evenodd;}.cls-4{fill:#ccdcea;}.cls-5{fill:#e3432d;}
    </style>
  </defs>
  <title>Монтажная область 5</title>
  <g id="Group">
    <path id="Fill-1" class="cls-2"
          d="M90,25.3v62a.92.92,0,0,1-1,.9H70.75v-2.8a10.3,10.3,0,0,0,.66-3.64,11.21,11.21,0,0,0-22.42,0,10.61,10.61,0,0,0,.71,3.82v2.62H30.94a.93.93,0,0,1-.87-.56.71.71,0,0,1-.07-.34v-62a.87.87,0,0,1,.07-.35,1,1,0,0,1,.87-.53H89.05a.92.92,0,0,1,1,.88"/>
    <polygon id="Fill-4" class="cls-3" points="36.67 42.52 81.43 42.52 81.43 40.61 36.67 40.61 36.67 42.52"/>
    <polygon id="Fill-6" class="cls-3" points="36.67 50.13 81.43 50.13 81.43 48.23 36.67 48.23 36.67 50.13"/>
    <polygon id="Fill-7" class="cls-3" points="36.67 56.8 81.43 56.8 81.43 54.9 36.67 54.9 36.67 56.8"/>
    <polygon id="Fill-8" class="cls-4" points="36.67 63.47 81.43 63.47 81.43 61.56 36.67 61.56 36.67 63.47"/>
    <path id="Fill-9" class="cls-5"
          d="M51.9,81.56v15a.23.23,0,0,0,0,.11.24.24,0,0,0,.23.16l7.78-2.65,7.9,2.65a.27.27,0,0,0,.26-.27v-15Z"/>
    <path id="Fill-10" class="cls-4" d="M69.05,82.52A9.06,9.06,0,1,1,60,73a9.29,9.29,0,0,1,9,9.53"/>
    <path id="Fill-11" class="cls-3" d="M66.19,82.52A6.21,6.21,0,1,1,60,76.8a6,6,0,0,1,6.19,5.72"/>
  </g>
</svg>
