<svg id="Слой_1" data-name="Слой 1" xmlns="http://www.w3.org/2000/svg" viewBox="0 0 120 120">
  <defs>
    <style>
      .cls-1,.cls-4{fill:#fff;}.cls-2{fill:#ccdcea;}.cls-2,.cls-3,.cls-4,.cls-5{fill-rule:evenodd;}.cls-3{fill:#4e6a7c;}.cls-5{fill:#e3432d;}
    </style>
  </defs>
  <title>Монтажная область 15</title>
  <g id="Group-4">
    <g id="Group">
      <g id="Group-2">
        <path id="Fill-1" class="cls-2"
              d="M58.61,38.2V90.91L26,85.73a.92.92,0,0,1-.75-.92V35.25a.93.93,0,0,1,1-.92l1.37.16Z"/>
        <path id="Fill-4" class="cls-2"
              d="M94.78,35.23l0,49.62a1,1,0,0,1-.79.92L61.39,90.91V38.18l30.69-3.64,1.69-.21a.91.91,0,0,1,1,.9"/>
        <path id="Fill-9" class="cls-3" d="M92,27.83V78.11a1,1,0,0,1-.6.87l-30,11V37.53L90.76,27a.92.92,0,0,1,1.24.86"/>
        <path id="Fill-11" class="cls-3" d="M58.61,37.64V90l-30-11.09A1,1,0,0,1,28,78V27.83A.92.92,0,0,1,29.22,27Z"/>
        <path class="cls-4" d="M43.77,46.38a8.36,8.36,0,0,0-3.85,15.77h7.7a8.36,8.36,0,0,0-3.85-15.77"/>
        <path id="Fill-3" class="cls-4"
              d="M40.06,66.07a.87.87,0,0,0,.86.86h.58v1.78a.85.85,0,0,0,.86.86h2.76a.85.85,0,0,0,.86-.86V66.93h.64a.87.87,0,0,0,.86-.86V64H40.06Z"/>
        <path id="Fill-17" class="cls-5"
              d="M66,35V52a.94.94,0,0,0,1.3.84l4.59-1.74a.9.9,0,0,0,.6-.84V33.37a.94.94,0,0,0-1.28-.84l-4.59,1.63A.9.9,0,0,0,66,35"/>
      </g>
    </g>
  </g>
</svg>
