<svg id="Слой_1" data-name="Слой 1" xmlns="http://www.w3.org/2000/svg" xmlns:xlink="http://www.w3.org/1999/xlink"
     viewBox="0 0 120 120">
  <defs>
    <style>
      .cls-1,.cls-2{fill:#fff;}.cls-1,.cls-3,.cls-4,.cls-6{fill-rule:evenodd;}.cls-3{fill:#ccdcea;}.cls-4,.cls-5{fill:#e3432d;}.cls-6{fill:#4e6a7c;}.cls-7{mask:url(#mask);}.cls-8{mask:url(#mask-2);}
    </style>
    <mask id="mask" x="44.92" y="71.14" width="17.14" height="30" maskUnits="userSpaceOnUse">
      <g id="mask-4">
        <path id="path-3" class="cls-1"
              d="M46.3,73.17c3.21-5,11.12,0,14.29,7.26q3.18,7.25-.52,20.71H47.36Q43.08,78.2,46.3,73.17Z"/>
      </g>
    </mask>
    <mask id="mask-2" x="57.77" y="71.14" width="17.14" height="30" maskUnits="userSpaceOnUse">
      <g id="mask-4-2" data-name="mask-4">
        <path id="path-3-2" data-name="path-3" class="cls-1"
              d="M72.47,101.14H59.76q-3.7-13.45-.52-20.71c3.17-7.26,11.08-12.29,14.29-7.26Q76.74,78.21,72.47,101.14Z"/>
      </g>
    </mask>
  </defs>
  <title>Монтажная область 11</title>
  <g id="Group-2">
    <g id="Group">
      <path id="Fill-5" class="cls-3"
            d="M90,78.46c-.21,2.3-.45,4.8-.66,7.35a5.65,5.65,0,0,1-4.1,4.56c-3.4.55-6.83,1-10.22,1.31V73a1.85,1.85,0,0,0-.88-1.56,2.09,2.09,0,0,0-2-.12L60.06,77.27l-12.41-6a2.05,2.05,0,0,0-1.79.24A1.81,1.81,0,0,0,45,73V91.71c-3.49-.33-7-.76-10.43-1.34a5.58,5.58,0,0,1-4.1-4.56c0-2.55-.24-5-.45-7.35a6.66,6.66,0,0,1,3.18-6A57.82,57.82,0,0,1,52.51,67c-.22-1.62-.46-3.21-.67-4.84a5.37,5.37,0,0,1-2.73-3.42,29.58,29.58,0,0,1-.46-4.35c-.24.21-.45.46-.69.46a1.29,1.29,0,0,1-1.37-1.17l-.67-6.85a1.27,1.27,0,0,1,1.13-1.38.9.9,0,0,1,.69.21c-.24-1.13-.24-2.29-.45-3.67l13,6.89a.83.83,0,0,0,.91,0L72.71,42.7c0,.92-.21,1.84-.21,3a.84.84,0,0,1,.67-.21,1.28,1.28,0,0,1,1.15,1.38l-.7,6.85a1.27,1.27,0,0,1-1.36,1.17,2,2,0,0,1-.91-.46,23.38,23.38,0,0,0-.46,4.13c0,1.13-1.12,2.51-2.7,3.43-.24,1.59-.45,3.21-.7,4.81a64.55,64.55,0,0,1,19.33,5.51A7,7,0,0,1,90,78.46"/>
      <path id="Fill-7" class="cls-4" d="M79.71,37.71V46.1c0,.62-.34,1-.85,1s-.86-.42-.86-1V39Z"/>
      <polyline id="Path-2" class="cls-4" points="78.67 43.71 77.14 47.14 80.57 47.14 79.05 43.71"/>
      <path class="cls-5"
            d="M80.57,47.59H77.14a.45.45,0,0,1-.37-.2.47.47,0,0,1,0-.43l1.53-3.43a.45.45,0,0,1,.59-.22h0a.45.45,0,0,1,.59.22L81,47a.47.47,0,0,1,0,.43A.48.48,0,0,1,80.57,47.59Zm-2.74-.89h2l-1-2.31Z"/>
      <path id="Fill-9" class="cls-6"
            d="M83.45,33.51l-3.19,1.82-19,10a.64.64,0,0,1-.68,0L38.26,33.51A.78.78,0,0,1,38,32.15L60.4,19.89a.69.69,0,0,1,.91,0L83.68,32.15a.77.77,0,0,1-.23,1.36"/>
      <g class="cls-7">
        <path id="Fill-17" class="cls-4"
              d="M58.63,80.33v20L47.72,93.85a.46.46,0,0,1-.23-.35V74.92a.37.37,0,0,1,.49-.33Z"/>
      </g>
      <g class="cls-8">
        <path id="Fill-17-2" data-name="Fill-17" class="cls-4"
              d="M71.85,74.59a.37.37,0,0,1,.49.33V93.5a.46.46,0,0,1-.23.35L61.2,100.29v-20Z"/>
      </g>
    </g>
  </g>
</svg>
