<svg id="Слой_1" data-name="Слой 1" xmlns="http://www.w3.org/2000/svg" viewBox="0 0 120 120">
  <defs>
    <style>
      .cls-1{fill:#fff;}.cls-2{fill:#ccdcea;}.cls-2,.cls-3,.cls-5{fill-rule:evenodd;}.cls-3{fill:#e3432d;}.cls-4{fill:#436377;}.cls-5,.cls-6{fill:#4e6a7c;}
    </style>
  </defs>
  <title>Монтажная область 19</title>
  <g id="Group-4">
    <g id="Group-3">
      <g id="Group">
        <g id="Group-2">
          <path id="Fill-26" class="cls-2"
                d="M87.12,81.51a33.81,33.81,0,0,1-26.3,12.6c-18.66,0-34.07-15.62-34.07-34.55S42.16,25,60.82,25c.35,0,.67,0,1,0l-.76,9.67a4.3,4.3,0,0,0-3.2,3.9l-1,13.95a7.91,7.91,0,0,0-3.93,6.83,7.81,7.81,0,0,0,7.75,7.86,6.89,6.89,0,0,0,2.37-.39l12.54,9.5a4.19,4.19,0,0,0,2.57.88,4.08,4.08,0,0,0,2.38-.73Z"/>
          <path id="Fill-28" class="cls-3"
                d="M95,59.46a35.12,35.12,0,0,1-6,19.59L82.6,74.11a4.64,4.64,0,0,0,.17-2,4.46,4.46,0,0,0-1.69-2.89L68.85,59.87a4.29,4.29,0,0,0,0-.62,8.06,8.06,0,0,0-3-6.27l1-13.95a4.37,4.37,0,0,0-2.55-4.32L65.12,25C82,27,95,41.89,95,59.46"/>
          <path class="cls-4"
                d="M78.37,74.16a1.34,1.34,0,0,1-.76-.24L62.74,63.29a1.32,1.32,0,0,1,1.52-2.15l2.07,1.5,12.81,9.14a1.31,1.31,0,0,1-.77,2.38Z"/>
          <ellipse id="Oval" class="cls-1" cx="40.75" cy="79.05" rx="15.75" ry="15.95"/>
          <path id="Fill-4" class="cls-3" d="M48.19,77.28v1.9s.43.76.43.76H46.88a6.44,6.44,0,0,0,.43-.76V77.66Z"/>
          <path id="Path-3" class="cls-5"
                d="M32.88,75.52l7.87,3.53,7.87-3.53L41.1,72.94a.89.89,0,0,0-.56,0l-7.66,2.58Z"/>
          <polygon id="Path-4" class="cls-5"
                   points="36.38 79.05 40.75 81.14 45.13 79.05 45.13 83.24 40.75 85.25 36.38 83.24 36.38 79.05"/>
          <path class="cls-6"
                d="M40.75,93.22a14.17,14.17,0,1,1,14-14.17A14.1,14.1,0,0,1,40.75,93.22Zm0-26.59A12.42,12.42,0,1,0,53,79.05,12.35,12.35,0,0,0,40.75,66.63Z"/>
          <path class="cls-4"
                d="M61,57.33H60.9a1.31,1.31,0,0,1-1.2-1.42l1.48-16.84a1.32,1.32,0,0,1,2.62.23L62.32,56.13A1.32,1.32,0,0,1,61,57.33Z"/>
          <path class="cls-4"
                d="M60.88,64.41a4.86,4.86,0,1,1,4.81-4.85A4.84,4.84,0,0,1,60.88,64.41Zm0-7.08a2.23,2.23,0,1,0,2.18,2.23A2.21,2.21,0,0,0,60.88,57.33Z"/>
        </g>
      </g>
    </g>
  </g>
</svg>
