<svg id="Слой_1" data-name="Слой 1" xmlns="http://www.w3.org/2000/svg" viewBox="0 0 120 120">
  <defs>
    <style>
      .cls-1{fill:#fff;}.cls-2{fill:#ccdcea;}.cls-2,.cls-3,.cls-4{fill-rule:evenodd;}.cls-3{fill:#436377;}.cls-4{fill:#e3432d;}
    </style>
  </defs>
  <title>Монтажная область 4</title>
  <g id="Group">
    <path id="Fill-1" class="cls-2"
          d="M55.49,72.74H88a1.11,1.11,0,0,1,1,1.17v3.27a1.1,1.1,0,0,1-1,1.16H55.49a1.09,1.09,0,0,1-1-1.16V73.91a1.1,1.1,0,0,1,1-1.17"/>
    <path id="Fill-3" class="cls-2"
          d="M55.49,48.48H88a1,1,0,0,1,1,1v2.72a1,1,0,0,1-1,1H55.49a1,1,0,0,1-1-1V49.45a1,1,0,0,1,1-1"/>
    <path id="Fill-5" class="cls-3"
          d="M50.73,81.14H90.87V61.54H50.73ZM29.27,47.54H45.13v-2.8H29.27Zm0,9.34H45.13v-2.8H29.27Zm0,7.46H45.13v-2.8H29.27Zm0,8.4H45.13v-2.8H29.27Zm0,7.47H45.13v-2.8H29.27ZM93.58,56H90.71l-.15,0h-40V30.83a1,1,0,0,0-1-1H46.71a1,1,0,0,0-1,1V40H29.51V30.83a1,1,0,0,0-1-1H25.62a1,1,0,0,0-1,1V90.39a1,1,0,0,0,1,1h2.87a1,1,0,0,0,1-1V85.12H45.69v5.27a1,1,0,0,0,1,1h2.87a1,1,0,0,0,1-1V85.12H89.69v5.27a1,1,0,0,0,1,1h2.87a1,1,0,0,0,1-1V57.05a1,1,0,0,0-1-1Z"/>
    <path id="Fill-7" class="cls-4"
          d="M67.85,69.94H55.08a.67.67,0,0,1-.61-.73V66a.68.68,0,0,1,.61-.73H67.85a.69.69,0,0,1,.62.73v3.2a.68.68,0,0,1-.62.73"/>
  </g>
</svg>
