<svg id="Слой_1" data-name="Слой 1" xmlns="http://www.w3.org/2000/svg" viewBox="0 0 120 120">
  <defs>
    <style>
      .cls-1,.cls-3{fill:#fff;}.cls-2{fill:#4e6a7c;}.cls-3{fill-rule:evenodd;}.cls-4{fill:#ccdcea;}.cls-5{fill:#e3432d;}
    </style>
  </defs>
  <title>Монтажная область 17</title>
  <g id="Group">
    <path id="Shape" class="cls-2"
          d="M76.48,33.88V86.12a7.7,7.7,0,0,1-7.72,7.68H41V26.2H68.76A7.7,7.7,0,0,1,76.48,33.88Z"/>
    <path id="Fill-17" class="cls-3"
          d="M56.62,60.85A3.81,3.81,0,1,1,60.42,57a3.81,3.81,0,0,1-3.8,3.81m8.12-5.46h-2a6,6,0,0,0-.44-1L63.71,53a.68.68,0,0,0,0-1l-1.39-1.32a.79.79,0,0,0-1.07,0l-1.42,1.35a6.05,6.05,0,0,0-1-.42V49.73A.75.75,0,0,0,58,49h-2a.75.75,0,0,0-.76.72v1.91a6.76,6.76,0,0,0-1,.42l-1.42-1.35a.79.79,0,0,0-1.07,0L50.37,52a.7.7,0,0,0,0,1l1.42,1.35a5.24,5.24,0,0,0-.44,1h-2a.74.74,0,0,0-.76.72V58a.74.74,0,0,0,.76.71h2a5.71,5.71,0,0,0,.44,1L50.37,61a.71.71,0,0,0,0,1l1.39,1.32a.79.79,0,0,0,1.07,0L54.24,62a6.5,6.5,0,0,0,1.06.42v1.89a.74.74,0,0,0,.76.72h2a.74.74,0,0,0,.76-.72V62.46A6.16,6.16,0,0,0,59.84,62l1.41,1.34a.79.79,0,0,0,1.07,0l1.39-1.32a.69.69,0,0,0,0-1L62.3,59.7a5,5,0,0,0,.43-1h2a.73.73,0,0,0,.75-.71V56.11a.74.74,0,0,0-.75-.72"/>
    <path id="Shape-Copy-2" class="cls-4"
          d="M37.61,93.8H31.52A1.53,1.53,0,0,1,30,92.27V27.73a1.53,1.53,0,0,1,1.52-1.53h6.09Z"/>
    <path class="cls-5" d="M81.55,77.75l2.51,5.84a1.46,1.46,0,0,0,1.29.92,1.43,1.43,0,0,0,1.29-.92l2.51-5.84Z"/>
    <path class="cls-5" d="M90,76.06V40.17a4.65,4.65,0,1,0-9.3,0V76.06Z"/>
  </g>
</svg>
