<svg id="Слой_1" data-name="Слой 1" xmlns="http://www.w3.org/2000/svg" viewBox="0 0 120 120">
  <defs>
    <style>
      .cls-1{fill:#fff;}.cls-2{fill:#ccdcea;}.cls-2,.cls-3{fill-rule:evenodd;}.cls-3{fill:#e3432d;}.cls-4{fill:#436377;}
    </style>
  </defs>
  <title>Монтажная область 3</title>
  <g id="Group-5">
    <g id="Group-4">
      <g id="Group">
        <path id="Fill-26" class="cls-2"
              d="M87,80.79A33.91,33.91,0,0,1,60.78,93.23a34.12,34.12,0,0,1,0-68.23c.34,0,.66,0,1,0L61,34.58a4.25,4.25,0,0,0-3.2,3.85l-1,13.77a7.75,7.75,0,0,0,3.8,14.5A7.14,7.14,0,0,0,63,66.32l12.52,9.37a4.21,4.21,0,0,0,2.56.87,4.09,4.09,0,0,0,2.37-.72Z"/>
        <path id="Fill-28" class="cls-3"
              d="M95,58.89a33.75,33.75,0,0,1-6,19.27L82.44,73.3a4.47,4.47,0,0,0,.18-2A4.39,4.39,0,0,0,80.9,68.5L68.52,59.3a4.22,4.22,0,0,0,0-.61,7.85,7.85,0,0,0-3-6.17l1-13.72A4.27,4.27,0,0,0,64,34.55L64.74,25A34.29,34.29,0,0,1,95,58.89"/>
        <path class="cls-4"
              d="M78.16,73.27a1.26,1.26,0,0,1-.78-.26L63.2,62.38a1.31,1.31,0,1,1,1.57-2.1l2,1.49L79,70.91a1.31,1.31,0,0,1-.79,2.36Z"/>
        <path class="cls-4"
              d="M61.47,56.44h-.13A1.3,1.3,0,0,1,60.16,55l1.5-16a1.31,1.31,0,1,1,2.61.25l-1.5,16A1.3,1.3,0,0,1,61.47,56.44Z"/>
        <path class="cls-4"
              d="M61.33,63.53a4.86,4.86,0,1,1,4.86-4.86A4.87,4.87,0,0,1,61.33,63.53Zm0-7.09a2.23,2.23,0,1,0,2.23,2.23A2.23,2.23,0,0,0,61.33,56.44Z"/>
        <g id="Group-3">
          <circle id="Oval" class="cls-1" cx="40.95" cy="79.05" r="15.95"/>
          <g id="тарификация">
            <rect class="cls-4" x="34.42" y="81.8" width="10.15" height="1.75"/>
            <path class="cls-4"
                  d="M41,93A13.93,13.93,0,1,1,54.87,79.05,13.95,13.95,0,0,1,41,93Zm0-26.1A12.18,12.18,0,1,0,53.12,79.05,12.19,12.19,0,0,0,41,66.88Z"/>
            <path id="Р" class="cls-4"
                  d="M42.47,71.73a5.81,5.81,0,0,1,2,.32,3.72,3.72,0,0,1,1.43.92,3.93,3.93,0,0,1,.84,1.47,6.53,6.53,0,0,1,.28,2,5.19,5.19,0,0,1-.33,1.88,4.19,4.19,0,0,1-2.46,2.44,5.55,5.55,0,0,1-2,.35H38.89V86.3h-3V71.73Zm-.7,2.51H38.89v4.31h2.88A2.38,2.38,0,0,0,43.39,78,2,2,0,0,0,44,76.4a2.84,2.84,0,0,0-.15-1,1.69,1.69,0,0,0-1.13-1.06,3.33,3.33,0,0,0-.93-.12Z"/>
          </g>
        </g>
      </g>
    </g>
  </g>
</svg>
