<svg id="Слой_1" data-name="Слой 1" xmlns="http://www.w3.org/2000/svg" viewBox="0 0 120 120">
  <defs>
    <style>
      .cls-1{fill:#fff;}.cls-2{fill:#ccdcea;}.cls-2,.cls-3{fill-rule:evenodd;}.cls-3{fill:#e3432d;}.cls-4{fill:#436377;}
    </style>
  </defs>
  <title>Монтажная область 9</title>
  <g id="Group-5">
    <g id="Group-4">
      <g id="Group">
        <path id="Fill-26" class="cls-2"
              d="M86.82,82.23A34.76,34.76,0,0,1,59.89,95a35,35,0,0,1,0-70c.35,0,.68,0,1,0l-.78,9.8a4.37,4.37,0,0,0-3.28,3.94l-1,14.14a8,8,0,0,0,3.91,14.87,7.24,7.24,0,0,0,2.43-.39L75,77a4.37,4.37,0,0,0,2.63.89,4.22,4.22,0,0,0,2.43-.74Z"/>
        <path id="Fill-28" class="cls-3"
              d="M95,59.77a34.74,34.74,0,0,1-6.2,19.78l-6.68-5a4.56,4.56,0,0,0,.18-2,4.49,4.49,0,0,0-1.76-2.91L67.83,60.19a4.43,4.43,0,0,0,0-.63,8,8,0,0,0-3.07-6.32l1-14.08a4.4,4.4,0,0,0-2.66-4.36L64,25A35.17,35.17,0,0,1,95,59.77"/>
        <path class="cls-4"
              d="M77.73,74.49a1.29,1.29,0,0,1-.79-.26L62.4,63.33A1.32,1.32,0,1,1,64,61.22l2,1.53,12.52,9.38a1.31,1.31,0,0,1-.78,2.36Z"/>
        <path class="cls-4"
              d="M60.6,57.22h-.13a1.31,1.31,0,0,1-1.18-1.43l1.53-16.37a1.32,1.32,0,0,1,2.62.25L61.9,56A1.3,1.3,0,0,1,60.6,57.22Z"/>
        <path class="cls-4"
              d="M60.45,64.49a4.95,4.95,0,1,1,5-4.95A5,5,0,0,1,60.45,64.49Zm0-7.27a2.33,2.33,0,1,0,2.33,2.32A2.32,2.32,0,0,0,60.45,57.22Z"/>
      </g>
    </g>
  </g>
</svg>
