<svg id="Слой_1" data-name="Слой 1" xmlns="http://www.w3.org/2000/svg" xmlns:xlink="http://www.w3.org/1999/xlink"
     viewBox="0 0 120 120">
  <defs>
    <style>
      .cls-1,.cls-2{fill:#fff;}.cls-1,.cls-4,.cls-6,.cls-7,.cls-8{fill-rule:evenodd;}.cls-3{mask:url(#mask);}.cls-4{fill:#ccdcea;}.cls-5{mask:url(#mask-2);}.cls-6{fill:#d7dee2;}.cls-7{fill:#436377;}.cls-8{fill:#e3432d;}
    </style>
    <mask id="mask" x="25.47" y="33.94" width="33.65" height="56.9" maskUnits="userSpaceOnUse">
      <g id="mask-4">
        <polygon id="path-3" class="cls-1" points="25.47 33.94 59.12 33.94 59.12 90.83 25.47 90.83 25.47 33.94"/>
      </g>
    </mask>
    <mask id="mask-2" x="60.67" y="90.43" width="0.91" height="0.48" maskUnits="userSpaceOnUse">
      <g id="mask-6">
        <polygon id="path-5" class="cls-1" points="60.67 90.43 61.58 90.43 61.58 90.91 60.67 90.91 60.67 90.43"/>
      </g>
    </mask>
  </defs>
  <title>Монтажная область 16</title>
  <g id="КУ-60">
    <g id="Group-19">
      <g id="Group-3">
        <g class="cls-3">
          <path id="Fill-1" class="cls-4"
                d="M59.11,37.83v53L26.23,85.63a.92.92,0,0,1-.76-.93V34.87a.93.93,0,0,1,1-.93l1.38.16Z"/>
        </g>
      </g>
      <path id="Fill-4" class="cls-4"
            d="M95.87,35.13l-.05,49.71a1,1,0,0,1-.79.92L62,90.91V38.08l31.09-3.64,1.71-.21a.91.91,0,0,1,1,.9"/>
      <g id="Group-8">
        <g class="cls-5">
          <polygon id="Fill-6" class="cls-6" points="61.08 90.91 61.08 90.89 61.17 90.87 61.08 90.91"/>
        </g>
      </g>
      <path id="Fill-9" class="cls-7" d="M93.12,27.85v51a1,1,0,0,1-.6.88L62,90.91V37.68L91.86,27a.93.93,0,0,1,1.26.88"/>
      <path id="Fill-11" class="cls-7" d="M59.3,37.8V90.91L28.81,79.65a1,1,0,0,1-.6-.88V27.84A.93.93,0,0,1,29.45,27Z"/>
      <path id="Fill-13" class="cls-1"
            d="M50,57,44.44,57a1.32,1.32,0,0,1-1,.43,1.37,1.37,0,0,1-1.38-1.37A1.31,1.31,0,0,1,42.58,55V48.07a.86.86,0,0,1,.86-.86.84.84,0,0,1,.84.86V55a1.35,1.35,0,0,1,.28.3L50,55.25a.82.82,0,0,1,.86.86A.86.86,0,0,1,50,57M43.76,44.28a11,11,0,1,0,11,11,11,11,0,0,0-11-11"/>
      <path id="Fill-15" class="cls-1"
            d="M50,57,44.44,57a1.32,1.32,0,0,1-1,.43,1.37,1.37,0,0,1-1.38-1.37A1.31,1.31,0,0,1,42.58,55V48.07a.86.86,0,0,1,.86-.86.84.84,0,0,1,.84.86V55a1.35,1.35,0,0,1,.28.3L50,55.25a.82.82,0,0,1,.86.86A.86.86,0,0,1,50,57M43.76,44.28a11,11,0,1,0,11,11,11,11,0,0,0-11-11"/>
      <path id="Fill-17" class="cls-8"
            d="M67.52,35V52.49a.93.93,0,0,0,1.29.86l4.52-1.79a.92.92,0,0,0,.59-.86V33.32a.93.93,0,0,0-1.26-.87l-4.53,1.68a1,1,0,0,0-.61.87"/>
    </g>
  </g>
</svg>
