<svg id="Слой_1" data-name="Слой 1" xmlns="http://www.w3.org/2000/svg" viewBox="0 0 120 120">
  <defs>
    <style>.cls-1{fill:#fff;}.cls-2{fill:#ccdcea;}.cls-3{fill:#f04c4c;}.cls-4{fill:#426074;}</style>
  </defs>
  <title>Монтажная область 2</title>
  <g id="Отчет">
    <g id="Group-12">
      <g id="Group">
        <path id="Path" class="cls-2"
              d="M36.38,58.35a6.35,6.35,0,0,0,4.2-1.7l6,3c0,.2-.1.5-.1.7a6.09,6.09,0,1,0,12.18,0,5.83,5.83,0,0,0-.6-2.6l8.19-8.19a5.83,5.83,0,0,0,2.6.6,6.11,6.11,0,0,0,6.09-6.09,5.56,5.56,0,0,0-.3-1.79l7.09-5.4a5.67,5.67,0,0,0,3.39,1,6.14,6.14,0,0,0,6.1-6.19,6.06,6.06,0,0,0-6.1-6.09A6.14,6.14,0,0,0,79,31.79a5.66,5.66,0,0,0,.3,1.8l-7.09,5.29a5.65,5.65,0,0,0-3.39-1,6.14,6.14,0,0,0-6.09,6.19,5.83,5.83,0,0,0,.6,2.6l-8.09,8.19a5.83,5.83,0,0,0-2.6-.6A6.3,6.3,0,0,0,48.47,56l-6-3c0-.2.09-.5.09-.7a6.05,6.05,0,0,0-6.09-6.09,6.12,6.12,0,0,0-6.19,6A6.2,6.2,0,0,0,36.38,58.35Z"/>
        <circle id="Oval" class="cls-3" cx="69.24" cy="43.57" r="6.99"/>
        <path class="cls-4"
              d="M93.1,90.41H90.91V47.57a2,2,0,0,0-2.1-2H80.62a2.09,2.09,0,0,0-2.1,2V90.41H74.43V59.75a2,2,0,0,0-2.1-2H64.14a2.09,2.09,0,0,0-2.09,2V90.41h-3.9V76a2,2,0,0,0-2.09-2H47.87a2.09,2.09,0,0,0-2.1,2V90.51H41.68V67.84a2,2,0,0,0-2.1-2H31.39a2.09,2.09,0,0,0-2.1,2V90.41H27.1a2.09,2.09,0,0,0-2.1,2,2,2,0,0,0,2.1,2H92.9a2.09,2.09,0,0,0,2.1-2A1.86,1.86,0,0,0,93.1,90.41Z"/>
      </g>
    </g>
  </g>
</svg>
