<svg id="Слой_1" data-name="Слой 1" xmlns="http://www.w3.org/2000/svg" viewBox="0 0 120 120">
  <defs>
    <style>
      .cls-1{fill:#fff;}.cls-2,.cls-5{fill:#ccdcea;}.cls-3{fill:#4e6a7c;}.cls-4{fill:#f04c4c;}.cls-5,.cls-6{fill-rule:evenodd;}.cls-6{fill:#22455b;opacity:0.8;isolation:isolate;}
    </style>
  </defs>
  <title>Монтажная область 10</title>
  <g id="Group-3">
    <path class="cls-2"
          d="M37.39,42.91h4a.34.34,0,0,0,.34-.34v-4a.34.34,0,0,0-.34-.34h-4a.34.34,0,0,0-.34.34v4A.34.34,0,0,0,37.39,42.91Z"/>
    <path class="cls-2"
          d="M44.69,42.91h4a.35.35,0,0,0,.34-.34v-4a.34.34,0,0,0-.34-.34h-4a.34.34,0,0,0-.34.34v4A.34.34,0,0,0,44.69,42.91Z"/>
    <path class="cls-2"
          d="M52,42.91h4a.35.35,0,0,0,.34-.34v-4a.34.34,0,0,0-.34-.34H52a.34.34,0,0,0-.34.34v4A.34.34,0,0,0,52,42.91Z"/>
    <g id="Group">
      <g id="Group-2">
        <path class="cls-3"
              d="M85.06,41.87A52.53,52.53,0,0,0,51.79,30H26V58.66h3.22a4.58,4.58,0,0,0,8.1,0H47.8a4.58,4.58,0,0,0,8.1,0H66.34a4.58,4.58,0,0,0,8.1,0h6.22c4.09,0,13.3-3.35,13.3-7.37C94,49.65,89.89,45.83,85.06,41.87Zm-54.5-7.41H51.79A48.37,48.37,0,0,1,62.2,35.65v5.12a3.58,3.58,0,0,0,3.6,3.56H80.87c.43.33.88.63,1.3,1,1.7,1.39,3,2.52,4,3.45H30.56V34.46Z"/>
        <path class="cls-4" d="M86.8,62.73H26v4.1H86.8a2.06,2.06,0,1,0,0-4.1Z"/>
        <path id="Fill-143" class="cls-5"
              d="M76.2,78.19a37.3,37.3,0,0,0-11.69-3.36c.14-1,.27-1.92.41-2.88a3.29,3.29,0,0,0,1.6-2.13c.1-.89.2-1.78.31-2.67a.76.76,0,0,0,.48.24.77.77,0,0,0,.85-.69l.42-4.11a.76.76,0,0,0-.69-.85.78.78,0,0,0-.45.09l.27-2.35c.08-1.07.6-3.92-1.45-5.77-3-2.93-9.54-2.93-12.52,0-2.06,1.85-1.53,4.7-1.45,5.77l.27,2.35a.78.78,0,0,0-.45-.09.76.76,0,0,0-.69.85l.42,4.11a.77.77,0,0,0,.85.69.76.76,0,0,0,.48-.24c.11.89.21,1.78.31,2.67A3.33,3.33,0,0,0,55.08,72c.14,1,.27,1.92.41,2.88A37.3,37.3,0,0,0,43.8,78.19a3.91,3.91,0,0,0-1.9,3.51c.14,1.45.28,2.89.43,4.34a3.26,3.26,0,0,0,2.4,2.73,95.4,95.4,0,0,0,30.54,0A3.26,3.26,0,0,0,77.67,86c.15-1.45.29-2.89.43-4.34a3.91,3.91,0,0,0-1.9-3.51"/>
        <path class="cls-6"
              d="M65.19,75.3c-1.37,0,0,1.33-5.48,1.33-4.12,0-3.5-1.51-4.8-1.33A35,35,0,0,0,43.8,78.52a3.77,3.77,0,0,0-1.9,3.41c.14,1.41.28,2.81.43,4.22a3.22,3.22,0,0,0,2.4,2.66,98.36,98.36,0,0,0,30.54,0,3.22,3.22,0,0,0,2.4-2.66c.15-1.41.29-2.81.43-4.22a3.77,3.77,0,0,0-1.9-3.41A33.93,33.93,0,0,0,65.19,75.3Z"/>
        <path class="cls-1"
              d="M60.75,76.84A11.76,11.76,0,0,1,54.1,74.5l.48-.7c4.27,2.93,8.17,2.93,12,0l.52.68A10.24,10.24,0,0,1,60.75,76.84Z"/>
      </g>
    </g>
  </g>
</svg>
