<svg id="Слой_1" data-name="Слой 1" xmlns="http://www.w3.org/2000/svg" viewBox="0 0 120 120">
  <defs>
    <style>
      .cls-1,.cls-4{fill:#fff;}.cls-2{fill:#ccdcea;}.cls-2,.cls-3,.cls-4,.cls-5{fill-rule:evenodd;}.cls-3{fill:#4e6a7c;}.cls-5{fill:#e3432d;}
    </style>
  </defs>
  <title>Монтажная область 14</title>
  <g id="ЖУРНАЛ_ТРЕНАЖЕРНОЙ_ПОДГОТОВКИ-Copy-3" data-name="ЖУРНАЛ ТРЕНАЖЕРНОЙ ПОДГОТОВКИ-Copy-3">
    <g id="Group-4">
      <g id="Group-2">
        <g id="Group-20">
          <g id="Group-19">
            <g id="Group-3">
              <path id="Fill-1" class="cls-2"
                    d="M58.37,40.77V93L25.94,87.89a.88.88,0,0,1-.72-.9V37.89a.87.87,0,0,1,1-.9l1.35.18Z"/>
            </g>
            <path id="Fill-4" class="cls-2"
                  d="M94.58,38.16l-.09,49a1,1,0,0,1-.81.9l-32.43,5V41l30.63-3.6,1.71-.18a.87.87,0,0,1,1,.9"/>
            <path id="Fill-9" class="cls-3"
                  d="M91.88,31V81.22a1.08,1.08,0,0,1-.63.9l-30,11V40.68L90.62,30.14a.89.89,0,0,1,1.26.81"/>
            <path id="Fill-11" class="cls-3" d="M58.55,40.77V93.11L28.55,82a1,1,0,0,1-.63-.9V31a1,1,0,0,1,1.26-.9Z"/>
            <path id="Fill-17" class="cls-4"
                  d="M43.23,65.37a4.69,4.69,0,1,1,4.69-4.69,4.71,4.71,0,0,1-4.69,4.69m9.82-6.94H50.44l-.54-1.35,1.8-1.8a1,1,0,0,0,0-1.36l-1.8-1.8a1,1,0,0,0-1.35,0l-1.8,1.8a4.24,4.24,0,0,0-1.35-.54V50.77a1,1,0,0,0-1-1H41.88a1,1,0,0,0-1,1v2.61l-1.35.54-1.8-1.8a1,1,0,0,0-1.35,0l-1.8,1.8a1,1,0,0,0,0,1.36l1.8,1.8a4.24,4.24,0,0,0-.54,1.35H33.33a1,1,0,0,0-1,1v2.52a1,1,0,0,0,1,1h2.52l.54,1.35-1.8,1.81a1,1,0,0,0,0,1.35l1.8,1.8a1,1,0,0,0,1.35,0l1.8-1.8a4.24,4.24,0,0,0,1.35.54V70.5a1,1,0,0,0,1,1h2.53a1,1,0,0,0,1-1V68l1.35-.54,1.8,1.8a1,1,0,0,0,1.35,0l1.8-1.8a1,1,0,0,0,0-1.35l-1.8-1.81a4.24,4.24,0,0,0,.54-1.35H53a1,1,0,0,0,1.08-1V59.42a1,1,0,0,0-1-1"/>
            <path class="cls-5"
                  d="M66.66,38.07V55.28a.89.89,0,0,0,1.26.81l4.41-1.81a.86.86,0,0,0,.54-.81V36.36a1,1,0,0,0-1.26-.9L67.2,37.08a1.37,1.37,0,0,0-.54,1"/>
          </g>
        </g>
      </g>
    </g>
  </g>
</svg>
