<svg id="Слой_1" data-name="Слой 1" xmlns="http://www.w3.org/2000/svg" viewBox="0 0 120 120">
  <defs>
    <style>
      .cls-1{fill:#fff;}.cls-2{fill:#e3432d;}.cls-2,.cls-3,.cls-4{fill-rule:evenodd;}.cls-3{fill:#ccdcea;}.cls-4{fill:#4e6a7c;}
    </style>
  </defs>
  <title>Монтажная область 18</title>
  <g id="ГРАФИК_ПРОИЗВОдСТВЕННОГО_ОБУЧЕНИЯ" data-name="ГРАФИК ПРОИЗВОдСТВЕННОГО ОБУЧЕНИЯ">
    <g id="Group-2">
      <g id="Group-3">
        <path id="Fill-1" class="cls-2"
              d="M60.05,75.06a4.95,4.95,0,1,1,5-5,5,5,0,0,1-5,5M70.6,67.72H67.84a7.91,7.91,0,0,0-.62-1.46l2-2a.93.93,0,0,0,0-1.34l-2-2a.92.92,0,0,0-1.33,0l-2,2a9.5,9.5,0,0,0-1.46-.6V59.52a1,1,0,0,0-.95-1H58.62a1,1,0,0,0-1,1v2.79a11.73,11.73,0,0,0-1.43.6h0l-2-2a1,1,0,0,0-1.36,0l-2,2a1,1,0,0,0,0,1.34l2,2a7.25,7.25,0,0,0-.61,1.46H49.49a1,1,0,0,0-1,1v2.84a1,1,0,0,0,1,.95h2.74a9.38,9.38,0,0,0,.62,1.48l-2,1.93a1,1,0,0,0,0,1.35l2,2a1,1,0,0,0,1.36,0l1.93-1.93a12.69,12.69,0,0,0,1.47.62v2.71a1,1,0,0,0,1,1h2.83a.94.94,0,0,0,.95-1V77.92a11.94,11.94,0,0,0,1.51-.62l1.93,1.93a1,1,0,0,0,1.33,0l2-2a.94.94,0,0,0,0-1.35l-1.93-1.93a9.38,9.38,0,0,0,.62-1.48H70.6a1,1,0,0,0,1-.95V68.67a1,1,0,0,0-1-1"/>
        <g id="Group">
          <path id="Fill-5-Copy" class="cls-3"
                d="M41.29,42.46H46a1.1,1.1,0,0,0,1.19-1.15V31.15A1.1,1.1,0,0,0,46,30H41.29a1.11,1.11,0,0,0-1.19,1.15V41.54a1.08,1.08,0,0,0,1.19.92"/>
          <path id="Fill-8-Copy" class="cls-3"
                d="M74.07,42.46H78.9a1.11,1.11,0,0,0,1.21-1.15V31.15A1.11,1.11,0,0,0,78.9,30H74.07a1.34,1.34,0,0,0-1.45,1.15V41.54c0,.46.73.92,1.45.92"/>
          <path id="Fill-11-Copy" class="cls-4"
                d="M84.18,34.28h-1.6v6.59a3.85,3.85,0,0,1-3.9,3.87H74.1a3.8,3.8,0,0,1-3.9-3.64V34.51H50V41.1A3.85,3.85,0,0,1,46.12,45H41.54a3.85,3.85,0,0,1-3.9-3.87V34.51H36a7.21,7.21,0,0,0-7.34,7.27V82.72A7.21,7.21,0,0,0,36,90H84a7.21,7.21,0,0,0,7.34-7.28V41.78a7.08,7.08,0,0,0-7.11-7.5ZM86.7,82.49A2.63,2.63,0,0,1,84,85.22H36a2.64,2.64,0,0,1-2.76-2.73V55H86.7Z"/>
        </g>
      </g>
    </g>
  </g>
</svg>
