<svg id="Слой_1" data-name="Слой 1" xmlns="http://www.w3.org/2000/svg" viewBox="0 0 120 120">
  <defs>
    <style>
      .cls-1,.cls-5{fill:#fff;}.cls-2{fill:#4e6a7c;}.cls-2,.cls-3,.cls-4,.cls-5{fill-rule:evenodd;}.cls-3{fill:#d7dee2;}.cls-4{fill:#e3432d;}
    </style>
  </defs>
  <title>Монтажная область 8</title>
  <path id="Fill-1" class="cls-2"
        d="M89.9,41.62v51.9a1,1,0,0,1-.94,1H30.84a1,1,0,0,1-.94-1v-67a1,1,0,0,1,.94-1H73.13v14.9a1.2,1.2,0,0,0,1.2,1.2Z"/>
  <polygon id="Fill-4" class="cls-3" points="48.71 74.78 71.09 74.78 71.09 72.09 48.71 72.09 48.71 74.78"/>
  <polygon id="Fill-6" class="cls-4" points="48.71 75.67 71.09 75.67 71.09 73.88 48.71 73.88 48.71 75.67"/>
  <path id="Fill-7" class="cls-5"
        d="M70.14,63H61.41V56.68a4.07,4.07,0,0,0,3-3.83,4.38,4.38,0,0,0-8.73,0,4.07,4.07,0,0,0,2.74,3.75V63H49.66a.92.92,0,0,0-.95.89V68c0,.26.15.47.35.47H70.74c.2,0,.35-.21.35-.47V63.88a.93.93,0,0,0-1-.89"/>
  <path id="Fill-8" class="cls-3"
        d="M89.9,39H76.49a.91.91,0,0,1-.92-.88V26.42c.05,0,.08,0,.13.06L87.27,36.53l2.41,2.09a.74.74,0,0,1,.22.34"/>
</svg>
