<svg id="Слой_1" data-name="Слой 1" xmlns="http://www.w3.org/2000/svg" viewBox="0 0 120 120">
  <defs>
    <style>
      .cls-1{fill:#fff;}.cls-2{fill:#ccdcea;}.cls-2,.cls-3,.cls-4{fill-rule:evenodd;}.cls-3{fill:#4e6a7c;}.cls-4{fill:#e3432d;}
    </style>
  </defs>
  <title>Монтажная область 7</title>
  <g id="РАСПИСАНИЕ">
    <g id="ПЛАН-ГРАФИК_УЧЕБНОГО_ПРОЦЕССА-Copy-2" data-name="ПЛАН-ГРАФИК УЧЕБНОГО ПРОЦЕССА-Copy-2">
      <g id="Group">
        <g id="Group-2">
          <g id="Group-3">
            <path id="Fill-5" class="cls-2"
                  d="M37.25,38.13H42.5a1.2,1.2,0,0,0,1.31-1.22V26.22A1.2,1.2,0,0,0,42.5,25H37.25a1.2,1.2,0,0,0-1.31,1.22V37.15c0,.49.52,1,1.31,1"/>
            <path id="Fill-8" class="cls-2"
                  d="M70.71,38.13h5.08a1.18,1.18,0,0,0,1.27-1.22V26.22A1.18,1.18,0,0,0,75.79,25H70.71a1.41,1.41,0,0,0-1.52,1.22V37.15c0,.49.76,1,1.52,1"/>
            <path id="Fill-4" class="cls-2"
                  d="M53.84,60H46.91a.49.49,0,0,1-.47-.5v-6a.48.48,0,0,1,.47-.5h6.93a.48.48,0,0,1,.47.5v6a.49.49,0,0,1-.47.5"/>
            <path id="Fill-9" class="cls-2"
                  d="M53.84,69.62H46.91a.48.48,0,0,1-.47-.5v-6a.49.49,0,0,1,.47-.51h6.93a.49.49,0,0,1,.47.51v6a.48.48,0,0,1-.47.5"/>
            <path id="Fill-11" class="cls-2"
                  d="M60.91,68.75H58.8a.93.93,0,0,1-1-.88V63.51a1,1,0,0,1,1-.89h6.25a1,1,0,0,1,.64.25,16.81,16.81,0,0,0-4.78,5.88"/>
            <path id="Fill-16" class="cls-2"
                  d="M53.84,78.37H46.91a.45.45,0,0,1-.47-.43V72.69a.46.46,0,0,1,.47-.44h6.93a.46.46,0,0,1,.47.44v5.25a.45.45,0,0,1-.47.43"/>
            <path id="Fill-18" class="cls-2"
                  d="M59.56,72.25a17.48,17.48,0,0,0-.49,4.19,15.27,15.27,0,0,0,.12,1.93H58.6a.84.84,0,0,1-.79-.87V73.13a.84.84,0,0,1,.79-.88Z"/>
            <path id="Fill-20" class="cls-2"
                  d="M77.06,54.76v3.63A18,18,0,0,0,70,60a.85.85,0,0,1-.85-.86V54.76a.92.92,0,0,1,.94-.89h6a.92.92,0,0,1,.94.89"/>
            <path id="Fill-22" class="cls-2"
                  d="M65.21,60H58.29a.49.49,0,0,1-.48-.5v-6a.48.48,0,0,1,.48-.5h6.92a.48.48,0,0,1,.48.5v6a.49.49,0,0,1-.48.5"/>
            <path class="cls-3"
                  d="M81.17,29.38H79.54v6.73a3.92,3.92,0,0,1-4,3.94H70.88a3.89,3.89,0,0,1-4-3.71V29.61H46.32v6.73a3.93,3.93,0,0,1-4,3.95H37.66a3.93,3.93,0,0,1-4-3.95V29.61H32.05A7.37,7.37,0,0,0,24.56,37V78.82a7.37,7.37,0,0,0,7.49,7.43H80.94a7.37,7.37,0,0,0,7.49-7.43V37a7.23,7.23,0,0,0-7.26-7.66Zm2.58,49.21a2.69,2.69,0,0,1-2.81,2.78H32.05a2.69,2.69,0,0,1-2.81-2.78V50.5H83.75Z"/>
            <path id="Fill-6" class="cls-2"
                  d="M42.46,69.62H35.54a.49.49,0,0,1-.48-.5v-6a.5.5,0,0,1,.48-.51h6.92a.49.49,0,0,1,.48.51v6a.48.48,0,0,1-.48.5"/>
            <path id="Fill-13" class="cls-2"
                  d="M42.46,78.37H35.54a.46.46,0,0,1-.48-.43V72.69a.47.47,0,0,1,.48-.44h6.92a.46.46,0,0,1,.48.44v5.25a.45.45,0,0,1-.48.43"/>
            <circle id="Oval" class="cls-1" cx="77.06" cy="76.62" r="18.38"/>
            <path id="Fill-24" class="cls-2"
                  d="M77.06,89.17A12.59,12.59,0,0,1,65.73,82a11.2,11.2,0,0,1-1-3.31,9.84,9.84,0,0,1-.19-2,12.36,12.36,0,0,1,.75-4.26,12.57,12.57,0,0,1,11.8-8.28,12.37,12.37,0,0,1,6.4,1.77,12.58,12.58,0,0,1,4.66,4.86,12.43,12.43,0,0,1,1.49,5.91A12.56,12.56,0,0,1,77.06,89.17M88.12,66.73a13.73,13.73,0,0,0-4.66-3.51,14.36,14.36,0,0,0-6.4-1.47A14.69,14.69,0,0,0,65.68,67.1,12.91,12.91,0,0,0,64,69.64a13.93,13.93,0,0,0-1.1,2.54,15,15,0,0,0-.67,4.44,11.58,11.58,0,0,0,.16,2A13.3,13.3,0,0,0,63.19,82a14.44,14.44,0,0,0,3.12,4.89A14.84,14.84,0,0,0,88.12,66.73"/>
            <path id="Fill-26" class="cls-2"
                  d="M85.47,76.14l-1.6,0-5.21,0a3.22,3.22,0,0,0-.29-.26l-.07-8.61a1.12,1.12,0,0,0-1.22-1.19,1.21,1.21,0,0,0-1.21,1.21L75.94,76a1.8,1.8,0,0,0-.63,1.38,1.88,1.88,0,0,0,1.89,1.87,1.82,1.82,0,0,0,1.43-.67l5.24,0,1.63,0a1.23,1.23,0,0,0,1.19-1.22,1.2,1.2,0,0,0-1.22-1.17"/>
            <path id="Fill-1" class="cls-4"
                  d="M42.46,59.12H35.54a.46.46,0,0,1-.48-.43V53.44a.47.47,0,0,1,.48-.44h6.92a.46.46,0,0,1,.48.44v5.25a.45.45,0,0,1-.48.43"/>
          </g>
        </g>
      </g>
    </g>
  </g>
</svg>
