<svg id="Слой_1" data-name="Слой 1" xmlns="http://www.w3.org/2000/svg" viewBox="0 0 120 120">
  <defs>
    <style>
      .cls-1,.cls-5{fill:#fff;}.cls-2{fill:#ccdcea;}.cls-2,.cls-3,.cls-4,.cls-5,.cls-6{fill-rule:evenodd;}.cls-3,.cls-7{fill:#e3432d;}.cls-4{fill:#4e6a7c;}.cls-6{fill:#22455b;opacity:0.8;isolation:isolate;}
    </style>
  </defs>
  <title>Монтажная область 13</title>
  <g id="Group-3">
    <g id="Group">
      <path id="Fill-1" class="cls-2"
            d="M90,52.93v38.5a1.05,1.05,0,0,1-1.08,1.08H67.58V70a1.1,1.1,0,0,0-1.08-1.08H53.58A1.1,1.1,0,0,0,52.5,70v22.5H31.17a1.05,1.05,0,0,1-1.09-1.08V52.93c0-.59.34-1,1.09-1.5L59.5,32.68a1.14,1.14,0,0,1,1.25,0L89.08,51.51c.5.58.92.83.92,1.42"/>
      <path id="Fill-5" class="cls-3"
            d="M90,42.34,60.5,22.68a1.27,1.27,0,0,0-1.33,0L30,41.93v6.83L59.17,29.51a1.27,1.27,0,0,1,1.33,0L90,49.18Z"/>
      <path id="Fill-8" class="cls-4"
            d="M90,60.59V93a1,1,0,0,1-1.08,1.08H67.58V71.43a1.1,1.1,0,0,0-1.08-1.09H53.58a1.1,1.1,0,0,0-1.08,1.09V94.18H31.17a1.06,1.06,0,0,1-1.09-1.09V60.59c0-.58.34-1,1.09-1.5L59.5,40.18a1.14,1.14,0,0,1,1.25,0L89.08,59.26c.5.5.92.75.92,1.33"/>
      <path class="cls-5"
            d="M75.67,82.18,75.33,82a39.34,39.34,0,0,0-8.83-2.92,4.1,4.1,0,0,0,1.33-2.83V76a2.62,2.62,0,0,0,1.5-2.25l.09-1a2,2,0,0,0,.66.17,2.79,2.79,0,0,0,2.75-2.84V64.76l.59-.33a2.76,2.76,0,0,0,1.5-2.17,2.51,2.51,0,0,0-1.17-2.42L61.42,52.18a2.63,2.63,0,0,0-2.92,0l-12.08,7.5a2.45,2.45,0,0,0-1.34,2.5,2.78,2.78,0,0,0,1.5,2.25l3.5,2,.25.16.17.84v.25A3.43,3.43,0,0,0,49.67,70L50,73.68A2.66,2.66,0,0,0,51.33,76c0,.17.09.33.09.5l.08.42a4.7,4.7,0,0,0,1.33,2.41,36.93,36.93,0,0,0-9.08,3,6,6,0,0,0-2.83,5.5c.08,1.17.25,2.59.25,3.92V92a5.44,5.44,0,0,0,4,4.5,119,119,0,0,0,14.33,1A85.53,85.53,0,0,0,74,96.26a5.38,5.38,0,0,0,3.92-4.58c.16-1.42.25-2.84.41-4.09a6.18,6.18,0,0,0-2.66-5.41"/>
      <path class="cls-2"
            d="M75.83,87.34c-.08,1.25-.25,2.59-.33,4a3,3,0,0,1-2.25,2.5,84.1,84.1,0,0,1-27.42,0,3.16,3.16,0,0,1-2.25-2.5,29.81,29.81,0,0,0-.25-4,3.68,3.68,0,0,1,1.75-3.25,34,34,0,0,1,10.42-3c-.08-.91-.25-1.75-.33-2.66a3.29,3.29,0,0,1-1.5-1.84,24.08,24.08,0,0,1-.25-2.41.47.47,0,0,1-.34.25c-.33,0-.75-.25-.75-.59L52,70.09a.68.68,0,0,1,.58-.75.49.49,0,0,1,.34.09c-.09-.67-.09-1.25-.25-2l7,3.75a.54.54,0,0,0,.5,0l6.25-3.34c0,.5-.09,1-.09,1.59a.49.49,0,0,1,.34-.09.68.68,0,0,1,.58.75l-.33,3.75a.68.68,0,0,1-.75.59.92.92,0,0,1-.5-.25,17.2,17.2,0,0,0-.25,2.25,2.56,2.56,0,0,1-1.5,1.83c-.09.92-.25,1.75-.34,2.58a34.84,34.84,0,0,1,10.42,3,3.93,3.93,0,0,1,1.83,3.5"/>
      <path id="Fill-4" class="cls-3" d="M70.83,65v3.67a.46.46,0,0,1-.41.5c-.25,0-.42-.17-.42-.5V65.51Z"/>
      <path id="Fill-6" class="cls-6"
            d="M73.08,62.51l-1.83,1-1.33.58-2.75,1.34-6.84,3.41a.35.35,0,0,1-.41,0l-7.75-3.66-1.34-.75L47,62.51c-.42-.17-.42-.67-.08-.75l12.91-7.25a.54.54,0,0,1,.5,0l12.92,7.25c.17.08.17.58-.17.75"/>
      <polyline id="Path-2" class="cls-3" points="70.33 67.93 69.17 70.43 71.67 70.43 70.58 67.93"/>
      <path class="cls-7"
            d="M71.67,70.59h-2.5a.17.17,0,0,1-.14-.07.15.15,0,0,1,0-.16l1.16-2.5a.16.16,0,0,1,.22-.08l.06,0a.1.1,0,0,1,.06,0,.17.17,0,0,1,.22.09l1.08,2.5a.18.18,0,0,1,0,.16A.16.16,0,0,1,71.67,70.59Zm-2.24-.33h2l-1-2.2Z"/>
    </g>
  </g>
</svg>
