<svg id="Слой_1" data-name="Слой 1" xmlns="http://www.w3.org/2000/svg" viewBox="0 0 120 120">
  <defs>
    <style>
      .cls-1{fill:#fff;}.cls-2{fill:#ccdcea;}.cls-2,.cls-3,.cls-4{fill-rule:evenodd;}.cls-3,.cls-5{fill:#e3432d;}.cls-4{fill:#22455b;opacity:0.8;isolation:isolate;}
    </style>
  </defs>
  <title>Монтажная область 12</title>
  <g id="Group-9">
    <g id="Group-4">
      <g id="Group">
        <path id="Fill-1" class="cls-2"
              d="M90,82.56c-.18,2.24-.46,4.75-.65,7.26a5.56,5.56,0,0,1-4.09,4.56,159.31,159.31,0,0,1-50.64,0,5.71,5.71,0,0,1-4.1-4.56A59.51,59.51,0,0,0,30,82.56a6.56,6.56,0,0,1,3.16-5.86,59.82,59.82,0,0,1,19.27-5.49c-.19-1.59-.46-3.17-.65-4.75A5.23,5.23,0,0,1,49.1,63a39,39,0,0,1-.47-4.28c-.18.19-.46.47-.65.47-.65,0-1.39-.47-1.39-1.12l-.65-6.8c0-.65.46-1.39,1.11-1.39a.89.89,0,0,1,.65.18c-.18-1.11-.18-2.23-.46-3.63l12.94,6.8a.83.83,0,0,0,.93,0L72.65,47.1c0,.93-.19,1.86-.19,3a.93.93,0,0,1,.66-.18,1.27,1.27,0,0,1,1.11,1.39L73.67,58a1.27,1.27,0,0,1-1.39,1.11,1.7,1.7,0,0,1-.93-.46,25.72,25.72,0,0,0-.47,4.09c0,1.12-1.12,2.52-2.7,3.45-.18,1.58-.46,3.16-.65,4.75A60.93,60.93,0,0,1,86.8,76.42,6.73,6.73,0,0,1,90,82.56"/>
        <path id="Fill-4" class="cls-3" d="M80,42.81v9.13a1.12,1.12,0,0,1-2.23,0V44.21Z"/>
        <path id="Fill-6" class="cls-4"
              d="M83.17,38.44,80,40.3l-2.23,1.12L73,43.93,61.2,50.26c-.28.28-.46.28-.74,0L47.05,43.47l-2.23-1.4-6.61-3.63A.81.81,0,0,1,38,37L60.27,23.73a.86.86,0,0,1,.93,0L83.45,37.14a.77.77,0,0,1-.28,1.3"/>
        <polyline id="Path-2" class="cls-3" points="78.79 51.38 77.21 55.01 80.84 55.01 79.26 51.38"/>
        <path class="cls-5"
              d="M80.84,55.46H77.21a.46.46,0,0,1-.38-.2.44.44,0,0,1,0-.43l1.58-3.63A.46.46,0,0,1,79,51l0,0,0,0a.46.46,0,0,1,.6.24l1.58,3.63a.44.44,0,0,1,0,.43A.43.43,0,0,1,80.84,55.46Zm-2.93-.91h2.24L79,52Z"/>
      </g>
    </g>
  </g>
</svg>
