<svg id="Слой_1" data-name="Слой 1" xmlns="http://www.w3.org/2000/svg" viewBox="0 0 39.67 37"><defs><style>.cls-1{fill:#e3432d;}.cls-2{isolation:isolate;}.cls-3{fill:#ff847b;}</style></defs><title>logo_asu_icon</title><g id="Цкадр"><g id="логин"><g id="АСУ-УЦПК-лого"><g id="Oval"><ellipse class="cls-1" cx="19.84" cy="7.22" rx="7.21" ry="7.22"/></g><g id="Rectangle"><path class="cls-1" d="M1.41,14.18l18.43,8.38h0V37L.59,28.24A1,1,0,0,1,0,27.33V15.09a1,1,0,0,1,1-1A1,1,0,0,1,1.41,14.18Z"/></g><g id="Rectangle-2" data-name="Rectangle" class="cls-2"><path class="cls-3" d="M38.26,14.18,19.84,22.56h0V37l19.25-8.76a1,1,0,0,0,.58-.91V15.09a1,1,0,0,0-1-1A1,1,0,0,0,38.26,14.18Z"/></g></g></g></g></svg>