<svg id="Слой_1" data-name="Слой 1" xmlns="http://www.w3.org/2000/svg" viewBox="0 0 480 210">
  <defs>
    <style>
      .cls-1 {
        fill: #e3432d;
      }

      .cls-2, .cls-4 {
        fill: none;
      }

      .cls-2, .cls-3, .cls-4 {
        stroke: #e3432d;
        stroke-width: 4px;
      }

      .cls-3 {
        fill: #d8d8d8;
      }

      .cls-4 {
        stroke-linecap: round;
      }
    </style>
  </defs>
  <title>Монтажная область 1</title>
  <g id="Типовые-элементы">
    <g id="_404" data-name="404">
      <g id="Group-3">
        <path id="Combined-Shape" class="cls-1" d="M320.22,201h51a4,4,0,0,0,4-4V169a4,4,0,0,0-4-4h-51V148a25,25,0,0,1,25-25h7a25,25,0,0,1,25,25v59h-57Z"/>
        <rect id="Rectangle-Copy-3" class="cls-2" x="237.22" y="165" width="137" height="36" rx="4" ry="4"/>
        <rect id="Rectangle-Copy-4" class="cls-2" x="95.22" y="165" width="137" height="36" rx="4" ry="4"/>
        <path id="Oval" class="cls-2" d="M251.22,207a4.14,4.14,0,0,0,4-4c0-2-2-2-4-2s-4-.21-4,2A4,4,0,0,0,251.22,207Z"/>
        <path id="Oval-Copy-7" class="cls-3" d="M327.22,207a4.14,4.14,0,0,0,4-4c0-2-2-2-4-2s-4-.21-4,2A4,4,0,0,0,327.22,207Z"/>
        <path id="Oval-Copy" class="cls-2" d="M109.22,207a4.14,4.14,0,0,0,4-4c0-2-2-2-4-2s-4-.21-4,2A4,4,0,0,0,109.22,207Z"/>
        <path id="Oval-Copy-4" class="cls-2" d="M176.22,207a4.14,4.14,0,0,0,4-4c0-2-2-2-4-2s-4-.21-4,2A4,4,0,0,0,176.22,207Z"/>
        <path id="Oval-2" data-name="Oval" class="cls-2" d="M267.22,207a4.14,4.14,0,0,0,4-4c0-2-2-2-4-2s-4-.21-4,2A4,4,0,0,0,267.22,207Z"/>
        <path id="Oval-Copy-8" class="cls-3" d="M343.22,207a4.14,4.14,0,0,0,4-4c0-2-2-2-4-2s-4-.21-4,2A4,4,0,0,0,343.22,207Z"/>
        <path id="Oval-Copy-2" class="cls-2" d="M125.22,207a4.14,4.14,0,0,0,4-4c0-2-2-2-4-2s-4-.21-4,2A4,4,0,0,0,125.22,207Z"/>
        <path id="Oval-Copy-5" class="cls-2" d="M192.22,207a4.14,4.14,0,0,0,4-4c0-2-2-2-4-2s-4-.21-4,2A4,4,0,0,0,192.22,207Z"/>
        <path id="Oval-3" data-name="Oval" class="cls-2" d="M283.22,207a4.14,4.14,0,0,0,4-4c0-2-2-2-4-2s-4-.21-4,2A4,4,0,0,0,283.22,207Z"/>
        <path id="Oval-Copy-9" class="cls-3" d="M359.22,207a4.14,4.14,0,0,0,4-4c0-2-2-2-4-2s-4-.21-4,2A4,4,0,0,0,359.22,207Z"/>
        <path id="Oval-Copy-3" class="cls-2" d="M141.22,207a4.14,4.14,0,0,0,4-4c0-2-2-2-4-2s-4-.21-4,2A4,4,0,0,0,141.22,207Z"/>
        <path id="Oval-Copy-6" class="cls-2" d="M208.22,207a4.14,4.14,0,0,0,4-4c0-2-2-2-4-2s-4-.21-4,2A4,4,0,0,0,208.22,207Z"/>
        <path id="Path-3" class="cls-4" d="M14.22,207.5h463.5"/>
        <path id="Path-3-2" data-name="Path-3" class="cls-4" d="M208.22,164.5,352.22,2"/>
        <polygon id="Rectangle" class="cls-2" points="237.22 174 375.22 174 375.22 186 237.22 186 237.22 174"/>
        <polygon id="Rectangle-Copy" class="cls-2" points="95.22 174 233.22 174 233.22 186 95.22 186 95.22 174"/>
        <path id="Path-4" class="cls-2" d="M117.22,175.5V186"/>
        <path id="Path-4-Copy" class="cls-2" d="M145.22,175.5V186"/>
        <path id="Path-4-Copy-2" class="cls-2" d="M179.72,175.5V186"/>
        <path id="Path-4-Copy-3" class="cls-2" d="M207.72,175.5V186"/>
        <path id="Path-4-Copy-4" class="cls-2" d="M260.72,175.5V186"/>
        <path id="Path-4-Copy-5" class="cls-2" d="M288.72,175.5V186"/>
        <path id="Path-4-Copy-6" class="cls-2" d="M323.22,175.5V186"/>
        <path id="Path-4-Copy-7" class="cls-2" d="M351.22,175.5V186"/>
        <path id="Path-5" class="cls-4" d="M74.78,180H31.22"/>
        <path id="Path-5-2" data-name="Path-5" class="cls-4" d="M65.78,170H10.22"/>
        <path id="Path-5-Copy" class="cls-4" d="M30.56,190H2"/>
        <path id="Path-5-Copy-2" data-name="Path-5-Copy" class="cls-4" d="M206.78,122.5H178.22"/>
        <path id="Path-5-3" data-name="Path-5" class="cls-4" d="M262,101.5H206.44"/>
        <path id="Path-5-4" data-name="Path-5" class="cls-4" d="M201,112.5H157.44"/>
      </g>
    </g>
  </g>
</svg>
